<svg xmlns="http://www.w3.org/2000/svg" fill="none" viewBox="0 0 300 200"><g clip-path="url(#logo-grid-horizontal__a)"><rect width="228" height="184" x="36" y="8" stroke="#005eff" stroke-opacity=".8" stroke-width=".15" rx="6"/><rect width="200" height="128" x="50" y="36" stroke="#005eff" stroke-opacity=".8" stroke-width=".15" rx="6"/><rect width="256" height="156" x="22" y="22" stroke="#005eff" stroke-opacity=".8" stroke-width=".15" rx="6"/><path stroke="#005eff" stroke-opacity=".8" stroke-width=".15" d="M0 200 300 0m0 200L0 0"/><rect width="284" height="128" x="8" y="36" stroke="#005eff" stroke-opacity=".8" stroke-width=".15" rx="6"/><path stroke="#005eff" stroke-opacity=".8" stroke-width=".208" d="M0 99.896h300m-300-28h300m-300 56h300M150.104 0v200m-28-200v200m56-200v200"/><path fill="#005eff" fill-opacity=".2" d="M300 0v200H0V0zM8 8v184h284V8z"/></g><defs><clipPath id="logo-grid-horizontal__a"><path fill="#fff" d="M0 0h300v200H0z"/></clipPath></defs></svg>
